# xmcd CD database file
#
# Track frame offsets:
#	150
#	23137
#	39682
#	60407
#	92000
#	112542
#	132172
#	148202
#	165002
#	199077
#
# Disc length: 2951 seconds
#
# Revision: 2
# Processed by: cddbd v1.4PL0 Copyright (c) Steve Scherf et al.
# Submitted via: CDex 1.50beta10
#
DISCID=770b850a
DTITLE=Blindside Blues Band - Blindsided
DYEAR=1994
DGENRE=Blues
TTITLE0=Play The Blues
TTITLE1=Borderline Blues
TTITLE2=Talkin' Bout My Baby
TTITLE3=Truth Never Lies
TTITLE4=Climb The Sky
TTITLE5=Higher Ground
TTITLE6=Long Hard Road
TTITLE7=Whole Lotta Nothin'
TTITLE8=Guilty
TTITLE9=Catchin' Z's
EXTD=YEAR: 1994
EXTT0=
EXTT1=
EXTT2=
EXTT3=
EXTT4=
EXTT5=
EXTT6=
EXTT7=
EXTT8=
EXTT9=
PLAYORDER=
